<?xml version="1.0" encoding="UTF-8" standalone="no"?>
<svg width="16px" height="16px" viewBox="0 0 16 16" version="1.1" xmlns="http://www.w3.org/2000/svg" xmlns:xlink="http://www.w3.org/1999/xlink">
    <!-- Generator: Sketch 3.7.1 (28215) - http://www.bohemiancoding.com/sketch -->
    <title>Slice 1</title>
    <desc>Created with Sketch.</desc>
    <defs>
        <rect id="path-1" x="0" y="0" width="16" height="16"></rect>
        <polygon id="path-3" points="4 1 6 0 12 3 12 5 10 6 14 8 14 10 8 13 6 12 6 10 2 12 0 11 0 5 2 4 4 5"></polygon>
        <mask id="mask-4" maskContentUnits="userSpaceOnUse" maskUnits="objectBoundingBox" x="-1" y="-1" width="16" height="15">
            <rect x="-1" y="-1" width="16" height="15" fill="white"></rect>
            <use xlink:href="#path-3" fill="black"></use>
        </mask>
    </defs>
    <g id="Page-1" stroke="none" stroke-width="1" fill="none" fill-rule="evenodd">
        <g id="Logo">
            <mask id="mask-2" fill="white">
                <use xlink:href="#path-1"></use>
            </mask>
            <use id="Rectangle-1" fill="#252F3A" xlink:href="#path-1"></use>
            <g id="logotype" mask="url(#mask-2)">
                <g transform="translate(1.000000, 1.000000)">
                    <g id="Shape" fill="none">
                        <use fill="#FFFFFF" fill-rule="evenodd" xlink:href="#path-3"></use>
                        <use stroke="#252F3A" mask="url(#mask-4)" stroke-width="2" stroke-linejoin="round" xlink:href="#path-3"></use>
                    </g>
                    <path d="M8,1 L6,2 L6,4 L4,5 L6,6 L8,5 L10,6 L10,4 L8,3 L8,1 Z M4,5 L2,6 L2,8 L0,9 L2,10 L4,9 L6,10 L6,8 L4,7 L4,5 Z M10,6 L8,7 L8,9 L6,10 L8,11 L10,10 L12,11 L12,9 L10,8 L10,6 Z" id="Combined-Shape" fill="#3BAAFF" fill-rule="evenodd"></path>
                </g>
            </g>
        </g>
    </g>
</svg>