<?xml version="1.0" encoding="UTF-8" standalone="no"?>
<svg width="524px" height="134px" viewBox="0 0 524 134" version="1.1" xmlns="http://www.w3.org/2000/svg" xmlns:xlink="http://www.w3.org/1999/xlink">
    <g>
        <path d="M419.771468,31.2572374 L419.771468,96.3052532 L429.351007,98.6620653 L429.351007,103.847052 L401.85773,103.847052 L401.85773,98.6620653 L410.000338,96.3052532 L410.000338,38.7990363 L401.85773,36.9135866 L401.85773,31.7285998 L419.771468,31.2572374 Z M433.014638,56.7108088 C439.91194,54.1968632 446.234372,52.9399093 451.982124,52.9399093 C457.602149,52.9399093 461.912898,54.0554559 464.914502,56.2865826 C467.916106,58.5177093 469.416885,62.2728591 469.416885,67.5521447 L469.416885,96.3052532 L477.080516,98.1907029 L477.080516,103.37569 L462.232231,103.847052 L460.220528,97.247978 C455.111415,102.275869 450.066242,104.789777 445.084857,104.789777 C440.103471,104.789777 436.367489,103.564247 433.876796,101.11315 C431.386104,98.6620531 430.140776,95.1740059 430.140776,90.648904 C430.140776,80.907365 437.485016,76.0366685 452.173715,76.0366685 L459.837346,76.0366685 L459.837346,68.4948696 C459.837346,62.8384921 456.803856,60.0103458 450.736784,60.0103458 C447.288133,60.0103458 444.446232,60.3560081 442.210995,61.0473432 L441.06145,61.4244331 L439.720315,68.4948696 L433.493615,68.4948696 L433.014638,56.7108088 Z M459.837346,82.1643802 L453.131669,82.1643802 C448.341876,82.1643802 444.941174,82.7771452 442.92946,84.0026937 C440.917747,85.2282421 439.911906,87.1293849 439.911906,89.7061791 C439.911906,92.157276 440.502638,94.026995 441.68412,95.315392 C442.865603,96.6037891 444.573937,97.247978 446.809174,97.247978 C447.89486,97.247978 448.996496,97.0594349 450.114114,96.6823431 C451.231733,96.3052513 452.317403,95.8338936 453.371158,95.2682558 C454.424912,94.7026181 455.366891,94.089853 456.197122,93.4299423 C457.027352,92.7700316 457.697913,92.1572666 458.208825,91.5916288 L459.837346,89.7061791 L459.837346,82.1643802 Z M489.197547,31.2572374 L489.197547,58.4077135 C493.859613,54.7624925 498.649334,52.9399093 503.566856,52.9399093 C510.33643,52.9399093 515.381603,55.1081548 518.702527,59.4447109 C522.02345,63.781267 523.683887,69.9403412 523.683887,77.9221183 C523.683887,81.8187339 523.10912,85.4167645 521.95957,88.716318 C520.81002,92.0158715 519.117651,94.8597298 516.882414,97.247978 C514.647178,99.6362263 511.901071,101.490233 508.644011,102.810055 C505.386952,104.129876 501.619037,104.789777 497.340155,104.789777 C494.083096,104.726928 491.161366,104.585521 488.574877,104.365551 C485.988389,104.145581 483.705288,103.721359 481.725507,103.092872 L479.618009,102.432965 L479.618009,38.7990363 L471.954378,36.9135866 L471.954378,31.7285998 L489.197547,31.2572374 Z M489.197547,96.3052532 C490.730281,96.9337395 494.051155,97.247978 499.160268,97.247978 C501.714824,97.247978 503.90213,96.7766203 505.722252,95.8338907 C507.542373,94.8911611 509.043153,93.5870715 510.224635,91.9215825 C511.406117,90.2560936 512.268267,88.2763912 512.81111,85.9824159 C513.353954,83.6884406 513.625371,81.1902446 513.625371,78.4877532 C513.625371,72.8313757 512.651461,68.4163251 510.703612,65.2424688 C508.755763,62.0686126 505.738238,60.4817082 501.650948,60.4817082 C498.457752,60.4817082 495.887268,61.0944733 493.939419,62.3200217 C491.99157,63.5455702 490.410962,64.9753553 489.197547,66.6094199 L489.197547,96.3052532 Z" id="lab" fill="#3BAAFF"></path>
        <path d="M172.806239,53.8826342 L173.668397,60.5759807 C174.307037,60.0731916 175.201118,59.381867 176.350668,58.501986 C177.500219,57.6221051 178.857306,56.7736612 180.421972,55.9566289 C181.986638,55.1395966 183.710938,54.43256 185.594923,53.8354979 C187.478909,53.2384359 189.442694,52.9399093 191.48634,52.9399093 C196.659316,52.9399093 200.507059,54.4325421 203.029684,57.4178524 C205.552308,60.4031628 206.813602,64.5668226 206.813602,69.9089569 L206.813602,96.3052532 L213.998256,98.6620653 L213.998256,103.847052 L191.007363,103.847052 L191.007363,98.6620653 L197.234063,96.3052532 L197.234063,70.8516818 C197.234063,67.4578553 196.563502,64.9596594 195.22236,63.3570191 C193.881218,61.7543788 191.837603,60.9530707 189.091455,60.9530707 C187.750313,60.9530707 186.425156,61.1259018 185.115946,61.4715693 C183.806736,61.8172369 182.59334,62.2728827 181.475722,62.8385204 C180.358103,63.4041582 179.368227,64.0169232 178.506065,64.6768339 C177.643902,65.3367446 176.925444,65.9809335 176.350668,66.6094199 L174.722147,68.4948696 L174.722147,96.3052532 L180.948847,98.6620653 L180.948847,103.847052 L157,103.847052 L157,98.6620653 L165.142608,96.3052532 L165.142608,61.4244331 L157,59.5389834 L157,54.3539966 L172.806239,53.8826342 Z M213.703933,79.619023 C213.703933,75.5967102 214.294665,71.9358319 215.476147,68.6362783 C216.65763,65.3367248 218.334032,62.5242904 220.505405,60.1988908 C222.676778,57.8734911 225.247262,56.0823318 228.216934,54.825359 C231.186606,53.5683863 234.459582,52.9399093 238.035961,52.9399093 C245.188719,52.9399093 250.744796,55.1710025 254.704359,59.6332559 C258.663921,64.0955092 260.643673,70.2860073 260.643673,78.2049357 C260.643673,82.1015513 260.068906,85.6681581 258.919356,88.904863 C257.769805,92.1415678 256.157266,94.9382903 254.081689,97.2951143 C252.006112,99.6519382 249.483525,101.490233 246.513853,102.810055 C243.544181,104.129876 240.239273,104.789777 236.59903,104.789777 C229.318545,104.789777 223.682639,102.652955 219.691145,98.3792479 C215.69965,94.1055404 213.703933,87.8521947 213.703933,79.619023 L213.703933,79.619023 Z M237.65278,60.4817082 C228.392513,60.4817082 223.762448,66.6093586 223.762448,78.8648431 C223.762448,91.1203277 228.232855,97.247978 237.173803,97.247978 C241.835868,97.247978 245.236571,95.6767856 247.376012,92.5343537 C249.515453,89.3919218 250.585157,84.6783446 250.585157,78.3934807 C250.585157,66.4522394 246.274408,60.4817082 237.65278,60.4817082 L237.65278,60.4817082 Z M276.113543,53.8826342 L276.975701,60.5759807 C277.869796,59.7589484 278.955466,58.8947926 280.232744,57.9834873 C281.510023,57.0721821 282.915008,56.2394501 284.447741,55.4852664 C285.980475,54.7310828 287.593015,54.1183177 289.285409,53.646953 C290.977802,53.1755882 292.654205,52.9399093 294.314666,52.9399093 C300.764921,52.9399093 305.203397,55.6423602 307.630225,61.0473432 C308.779776,59.9160677 310.120898,58.8633688 311.653632,57.8892149 C313.186365,56.915061 314.766973,56.0509051 316.395503,55.2967215 C318.024033,54.5425378 319.620607,53.9611966 321.185273,53.5526805 C322.749938,53.1441643 324.170889,52.9399093 325.448167,52.9399093 C335.347074,52.9399093 340.296452,58.5962019 340.296452,69.9089569 L340.296452,96.3052532 L347.481107,98.6620653 L347.481107,103.847052 L324.490213,103.847052 L324.490213,98.6620653 L330.716914,96.3052532 L330.716914,70.8516818 C330.716914,67.3950066 330.110216,64.8810988 328.896801,63.3098828 C327.683387,61.7386669 325.703635,60.9530707 322.957487,60.9530707 C321.616345,60.9530707 320.32312,61.1259018 319.077774,61.4715693 C317.832428,61.8172369 316.666929,62.2728827 315.581242,62.8385204 C314.495556,63.4041582 313.537612,64.0169232 312.707381,64.6768339 C311.87715,65.3367446 311.206589,65.9809335 310.695678,66.6094199 L309.162951,68.4948696 L309.162951,96.3052532 L315.389652,98.6620653 L315.389652,103.847052 L293.356713,103.847052 L293.356713,98.6620653 L299.583413,96.3052532 L299.583413,70.8516818 C299.583413,67.3950066 298.976715,64.8810988 297.7633,63.3098828 C296.549886,61.7386669 294.570134,60.9530707 291.823986,60.9530707 C290.482844,60.9530707 289.189619,61.1259018 287.944273,61.4715693 C286.698927,61.8172369 285.533428,62.2728827 284.447741,62.8385204 C283.362055,63.4041582 282.404111,64.0169232 281.57388,64.6768339 C280.743649,65.3367446 280.073088,65.9809335 279.562177,66.6094199 L278.02945,68.4948696 L278.02945,96.3052532 L284.256151,98.6620653 L284.256151,103.847052 L260.307304,103.847052 L260.307304,98.6620653 L268.449912,96.3052532 L268.449912,61.4244331 L260.307304,59.5389834 L260.307304,54.3539966 L276.113543,53.8826342 Z M353.539622,56.7108088 C360.436925,54.1968632 366.759357,52.9399093 372.507109,52.9399093 C378.127133,52.9399093 382.437883,54.0554559 385.439486,56.2865826 C388.44109,58.5177093 389.94187,62.2728591 389.94187,67.5521447 L389.94187,96.3052532 L397.605501,98.1907029 L397.605501,103.37569 L382.757215,103.847052 L380.745512,97.247978 C375.636399,102.275869 370.591226,104.789777 365.609841,104.789777 C360.628456,104.789777 356.892473,103.564247 354.401781,101.11315 C351.911088,98.6620531 350.665761,95.1740059 350.665761,90.648904 C350.665761,80.907365 358.01,76.0366685 372.6987,76.0366685 L380.362331,76.0366685 L380.362331,68.4948696 C380.362331,62.8384921 377.328841,60.0103458 371.261769,60.0103458 C367.813118,60.0103458 364.971216,60.3560081 362.735979,61.0473432 L361.586435,61.4244331 L360.245299,68.4948696 L354.018599,68.4948696 L353.539622,56.7108088 Z M380.362331,82.1643802 L373.656654,82.1643802 C368.86686,82.1643802 365.466158,82.7771452 363.454445,84.0026937 C361.442732,85.2282421 360.43689,87.1293849 360.43689,89.7061791 C360.43689,92.157276 361.027622,94.026995 362.209105,95.315392 C363.390587,96.6037891 365.098921,97.247978 367.334158,97.247978 C368.419845,97.247978 369.52148,97.0594349 370.639099,96.6823431 C371.756717,96.3052513 372.842388,95.8338936 373.896142,95.2682558 C374.949897,94.7026181 375.891875,94.089853 376.722106,93.4299423 C377.552337,92.7700316 378.222898,92.1572666 378.733809,91.5916288 L380.362331,89.7061791 L380.362331,82.1643802 Z" id="noma" fill="#182535"></path>
        <g id="logotype" transform="translate(2.000000, 2.000000)" stroke-width="4" stroke="#252F3A" stroke-linejoin="round">
            <polygon id="B" fill="#FFFFFF" points="40 10 60 0 120 30 120 50 100 60 140 80 140 100 80 130 60 120 60 100 20 120 0 110 0 50 20 40 40 50"></polygon>
            <polygon id="L3" fill="#3BAAFF" points="80 10 60 20 60 40 40 50 60 60 80 50 100 60 100 40 80 30"></polygon>
            <polygon id="L2" fill="#3BAAFF" points="40 50 20 60 20 80 0 90 20 100 40 90 60 100 60 80 40 70"></polygon>
            <polygon id="L1" fill="#3BAAFF" points="100 60 80 70 80 90 60 100 80 110 100 100 120 110 120 90 100 80"></polygon>
        </g>
    </g>
</svg>